<?xml version="1.0" standalone="no"?>
<!DOCTYPE svg PUBLIC "-//W3C//DTD SVG 1.1//EN" "http://www.w3.org/Graphics/SVG/1.1/DTD/svg11.dtd" >
<svg xmlns="http://www.w3.org/2000/svg">
<metadata>Generated by IcoMoon</metadata>
<defs>
<font id="tone" horiz-adv-x="1024">
<font-face units-per-em="1024" ascent="960" descent="-64" />
<missing-glyph horiz-adv-x="1024" />
<glyph unicode="&#x20;" horiz-adv-x="512" d="" />
<glyph unicode="&#xe900;" glyph-name="shield" d="M137.156 446.281c0-261.875 345.938-435.703 360.687-442.969l14.156-7 14.156 7c14.75 7.266 360.687 181.094 360.687 442.969v417.719h-749.687v-417.719zM201.156 800h621.688v-353.719c0-195.078-248.281-343.719-310.875-378.078-62.594 34.297-310.812 182.624-310.812 378.078v353.719zM758.844 446.281v289.719h-246.844v-593.914c120.072 72.613 246.844 188.98 246.844 304.195z" />
<glyph unicode="&#xe901;" glyph-name="skull" d="M160 288v-160l32-32h72.188l17.156-57.188 30.656-22.812h400l30.656 22.812 17.156 57.188h72.188l32 32v160l-18.219 18.219c55.437 116.359 78.469 283.109 5.625 410.14-42.781 74.656-136.437 163.641-339.406 163.641s-296.625-88.984-339.406-163.641c-72.844-127.031-49.812-293.781 5.625-410.14zM228.094 684.531c50.031 87.235 145.563 131.469 283.906 131.469s233.875-44.234 283.906-131.469c64.687-112.828 37.125-276.75-23.531-380.359l27.625-48.172v-96h-64l-30.656-22.812-17.156-57.188h-352.375l-17.156 57.188-30.656 22.812h-64v96l27.625 48.172c-60.656 103.609-88.219 267.531-23.531 380.359zM352 320c51 0 128.094 38.281 128.094 96l0.032 12.594c0.219 42.828 0.375 76.656-21.594 98.734-10.478 10.324-24.871 16.699-40.753 16.699-0.626 0-1.249-0.010-1.87-0.030l0.091 0.002c-39.563 0-160 0-160-128v-3.672c-0.451-3.378-0.708-7.284-0.708-11.25 0-21.992 7.909-42.138 21.039-57.746l-0.112 0.137c17.564-14.915 40.497-23.985 65.549-23.985 3.604 0 7.163 0.188 10.67 0.554l-0.438-0.037zM320 416c0 35.812 6.906 63.296 93.625 63.936 1.771-11.621 2.783-25.030 2.783-38.675 0-4.346-0.103-8.668-0.306-12.964l0.023 0.607-0.032-12.844c-15.255-18.954-38.161-31.215-63.956-32.057l-0.138-0.004c-2.025-0.242-4.37-0.38-6.747-0.38-8.502 0-16.592 1.766-23.922 4.952l0.388-0.15v-0.015c-1.218 5.403-1.915 11.609-1.915 17.977 0 2.037 0.071 4.057 0.212 6.058l-0.015-0.27v3.828zM543.906 416c0-57.719 77.094-96 128.094-96 3.068-0.329 6.628-0.517 10.232-0.517 25.052 0 47.985 9.070 65.695 24.106l-0.146-0.121c13.017 15.472 20.927 35.617 20.927 57.609 0 3.966-0.257 7.872-0.756 11.702l0.048-0.452v3.672c0 128-120.437 128-160 128-0.53 0.017-1.153 0.027-1.778 0.027-15.882 0-30.275-6.375-40.76-16.706l0.007 0.007c-21.969-22.078-21.812-55.906-21.594-98.734zM610.406 480c86.656-0.5 93.594-28.064 93.594-64v-3.828c0.118-1.752 0.185-3.798 0.185-5.859 0-6.235-0.613-12.326-1.782-18.217l0.098 0.592c-6.819-3.26-14.822-5.165-23.269-5.165-2.55 0-5.059 0.173-7.516 0.509l0.285-0.032c-25.932 0.846-48.839 13.109-63.965 31.899l-0.129 0.165-0.032 12.844c-0.182 3.691-0.286 8.015-0.286 12.363 0 13.665 1.024 27.091 3.001 40.204l-0.183-1.475zM448 160h128l28.625 46.313-64 128h-57.25l-64-128zM512 248.453l12.219-24.453h-24.438z" />
<glyph unicode="&#xe902;" glyph-name="skull-spike" d="M483.266 381.641l0.032 12.016c0.203 39.406 0.359 73.453-20.984 94.891-10.226 10.1-24.287 16.339-39.805 16.339-0.607 0-1.212-0.010-1.814-0.028l0.088 0.002c-38 0-153.609 0-153.609-123.219v-3.469c-0.431-3.245-0.677-6.996-0.677-10.805 0-21.301 7.694-40.805 20.454-55.884l-0.105 0.127c16.963-14.459 39.138-23.255 63.367-23.255 3.442 0 6.843 0.178 10.193 0.524l-0.42-0.035c49.077 0 123.28 37.016 123.28 92.797zM419.312 393.969l-0.047-12.078c-14.439-16.996-35.479-28.007-59.109-29.041l-0.173-0.006c-1.477-0.108-3.2-0.17-4.938-0.17-8.018 0-15.728 1.314-22.928 3.74l0.506-0.148h-0.032c-1.003 4.974-1.577 10.693-1.577 16.545 0 1.831 0.056 3.649 0.167 5.452l-0.012-0.247v3.625c0 28.656 0 58.266 86.094 59.172 1.442-10.737 2.266-23.149 2.266-35.753 0-3.9-0.079-7.782-0.235-11.645l0.018 0.554zM603.219 504.86c-0.514 0.017-1.119 0.026-1.726 0.026-15.518 0-29.578-6.239-39.811-16.345l0.006 0.006c-21.344-21.437-21.188-55.484-20.984-94.891l0.032-12.016c0-55.781 74.203-92.797 123.281-92.797 2.931-0.311 6.332-0.489 9.774-0.489 24.229 0 46.403 8.796 63.504 23.369l-0.137-0.114c12.655 14.953 20.349 34.456 20.349 55.757 0 3.809-0.246 7.561-0.723 11.24l0.046-0.434v3.469c-0.001 123.219-115.61 123.219-153.61 123.219zM691.968 356.938c-6.35-2.827-13.759-4.473-21.552-4.473-2.256 0-4.48 0.138-6.663 0.406l0.262-0.026c-23.802 1.040-44.842 12.050-59.184 28.929l-0.097 0.118-0.047 12.078c-0.14 3.314-0.219 7.202-0.219 11.109 0 12.609 0.829 25.025 2.436 37.195l-0.154-1.429c86.078-0.781 86.078-30.484 86.078-59.203v-3.624c0.076-1.631 0.12-3.543 0.12-5.465 0-5.504-0.356-10.925-1.045-16.241l0.067 0.628zM483.375 304.75l-60.812-121.625 28.625-46.313h121.625l28.625 46.313-60.812 121.625h-57.25zM502.969 200.814l9.031 18.076 9.031-18.078h-18.063zM876.672 892.047c-71.743-38.468-155.357-65.936-243.962-77.542l-3.694-0.395 0.352-2.436c-34.179 7.903-73.426 12.433-113.731 12.433-1.279 0-2.556-0.005-3.832-0.014l0.196 0.001c-1.081 0.008-2.36 0.013-3.639 0.013-40.305 0-79.552-4.53-117.259-13.108l3.529 0.675 0.352 2.436c-92.299 12.001-175.912 39.469-251.591 79.855l3.936-1.918-47.406-27.922c-0.421-113.085 20.582-195.525 63.522-252.004-11.516-38.621-18.143-82.999-18.143-128.924 0-74.994 17.672-145.861 49.079-208.663l-1.223 2.701-17.203-17.203v-152.016l32-32h67.407l15.953-53.203 30.655-22.812h380.064l30.656 22.812 15.953 53.203h67.406l32 32v152.016l-17.203 17.203c30.184 60.102 47.856 130.968 47.856 205.963 0 45.925-6.627 90.302-18.977 132.228l0.835-3.304c42.94 56.48 63.943 138.92 63.52 252.004zM858.453 811.734c-1.96-47.797-12.992-92.536-31.408-133.218l0.912 2.252c-24.017 36.645-55.121 66.665-91.576 88.737l-1.27 0.714c47.813 11.825 88.906 26.044 128.267 43.46l-4.925-1.945zM288.889 770.219c-37.724-22.786-68.829-52.806-92.181-88.372l-0.665-1.079c-17.504 38.431-28.536 83.17-30.473 130.256l-0.023 0.711c34.437-15.472 75.529-29.691 118.023-40.382l5.319-1.134zM784.047 230.812v-90.797h-59.219l-30.656-22.812-15.953-53.203h-332.438l-15.953 53.203-30.656 22.812h-59.219v90.797l26.031 45.376c-57.391 98.062-83.484 253.14-22.328 359.797 47.218 82.358 137.5 124.108 268.343 124.108s221.125-41.75 268.344-124.109c61.156-106.656 35.062-261.734-22.328-359.797z" />
<glyph unicode="&#xe903;" glyph-name="slow" d="M585.812 619.471v228.529l-53.062 24.094-457.812-400v-48.188l457.812-400 53.062 24.094v228.529l289.125-252.623 53.062 24.094v800l-53.062 24.094zM521.812 118.437l-377.172 329.563 377.172 329.547v-213.995l-104.672-91.456v-48.188l104.672-91.456v-214.012zM864 118.469l-377.156 329.531 377.156 329.547v-659.078z" />
<glyph unicode="&#xe904;" glyph-name="struct" d="M512 880c-238.587 0-432-193.413-432-432s193.413-432 432-432c238.587 0 432 193.413 432 432v0c-0.28 238.474-193.526 431.72-431.973 432h-0.027zM512 80c-203.241 0-368 164.759-368 368s164.759 368 368 368c203.241 0 368-164.759 368-368v0c-0.233-203.147-164.853-367.768-367.978-368h-0.022zM496.001 432c76.035-76.035 91.11-184.236 33.673-241.673s-165.639-42.361-241.673 33.674c-76.035 76.035-91.11 184.236-33.673 241.673s165.639 42.361 241.673-33.674z" />
<glyph unicode="&#xe905;" glyph-name="sword" d="M211.875 12.125l153.031 153.031 124.125-124.109h45.25l90.531 90.5v45.25l-73.5 73.5 362.031 362.031 9.376 21.766 5.28 197.047-32.656 32.86-195.719-3.936-21.969-9.376-362.344-362.36-74.812 72.781-44.938-0.313-90.531-90.5v-45.25l124.125-124.125-153.031-153.047v-45.251l90.499-90.499h45.251zM297.031 278.297v45.25l-124.125 124.125 45.594 45.563 74.812-72.781 44.938 0.313 375.563 375.562 149.312 3-3.86-143.328h-139.264l-320-320 83.437-83.437v-24.891l73.5-73.5-45.28-45.25-124.125 124.109h-45.251l-153.031-153.031-45.25 45.25z" />
<glyph unicode="&#xe906;" glyph-name="training" d="M489.376 902.624l-432-432v-45.248l432-432h45.248l432 432v45.248l-432 432h-45.248zM512 61.25l-386.75 386.75 386.75 386.75 386.75-386.75zM512 151.744v296.256h-296.256l296.256-296.256z" />
<glyph unicode="&#xe907;" glyph-name="worker" d="M423.936 284.896l58.432 98.4 4.48 16.32v287.808h78.88v-287.808l4.704-16.704 60.288-98.4 54.56 33.44-55.552 90.688v310.784l-32 32h-142.88l-32-32v-311.008l-53.952-90.848 55.040-32.672zM912 144.578l32 32v137.438l-14.062 26.5-34.969 23.672c-22.906 122.84-94.151 225.775-192.826 290.199l-1.69 1.035-49.031-27.094v-180.328h64v115.188c62.303-55.465 105.020-131.745 117.201-217.844l0.221-1.906 13.952-23.922 33.204-22.484v-88.453h-736v87.094l38.812 22.734 15.734 25.188c6.125 80.734 69.469 167.75 138.594 225.563v-121.156h64v183.703l-48.704 27.296c-93.672-57.328-198.203-171.953-215.812-293.484l-40.797-23.891-15.827-27.608v-137.437l32-32h800z" />
<glyph unicode="&#xe908;" glyph-name="ai" d="M669.143 619.429c0-71.008-19.187-128.571-42.856-128.571s-42.856 57.563-42.856 128.571c0 71.008 19.187 128.571 42.856 128.571s42.856-57.563 42.856-128.571zM440.572 619.429c0-71.008-19.188-128.571-42.857-128.571s-42.857 57.563-42.857 128.571c0 71.008 19.188 128.571 42.857 128.571s42.857-57.563 42.857-128.571zM843.922 370.406c-10.351 168.621-36.167 326.051-76.265 477.674l3.812-16.955-23.984 22.875c-70.766 16.447-152.024 25.875-235.484 25.875s-164.718-9.428-242.767-27.276l7.283 1.401-23.985-22.875c-36.286-134.668-62.102-292.098-72.111-453.807l-0.342-6.912 17.062-30.656c90.493-43.498 196.743-68.912 308.928-68.912 5.399 0 10.784 0.059 16.154 0.176l-0.801-0.014c117.922 0 232.672 23.344 307.5 69.938zM309.312 795.5c60.934 12.966 130.944 20.391 202.688 20.391s141.755-7.425 209.304-21.548l-6.616 1.157c28.776-110.615 50.632-241.487 61.13-375.551l0.506-8.043c-79.161 23.928-170.135 37.702-264.327 37.702-94.186 0-185.156-13.773-271.005-39.414l6.691 1.716c11.001 142.103 32.853 272.974 65.101 399.693l-3.474-16.103zM313.541 363.006c59.733 14.477 128.311 22.779 198.827 22.779 72.621 0 143.185-8.805 210.683-25.407l-6.032 1.254c-59.753-16.313-128.361-25.686-199.158-25.686-72.675 0-143.044 9.877-209.836 28.361l5.516-1.302zM226.328 313.312c-11.242 6.578-24.754 10.463-39.172 10.463-43.354 0-78.505-35.117-78.562-78.457v-0.005c-1.531-77.969 95.062-188.938 136.25-214.906 12.481-8.535 27.769-13.846 44.259-14.433l0.147-0.004c0.173-0.002 0.376-0.003 0.581-0.003 9.475 0 18.359 2.529 26.015 6.95l-0.251-0.134c17.832 12.46 29.35 32.891 29.35 56.011 0 3.181-0.218 6.311-0.64 9.376l0.040-0.355v0.032c-1.906 48.656-49.734 187.812-118.016 225.468zM280.437 83.656c-0.469 0.251-0.953 0.563-1.453 0.876-30.312 19.125-107.344 111.656-106.406 159.533-0.011 0.219-0.018 0.476-0.018 0.735 0 8.063 6.263 14.662 14.19 15.199l0.047 0.003c3.225-0.183 6.183-1.183 8.713-2.794l-0.073 0.044c41.939-23.094 83.563-136.094 84.969-171.906zM876.125 313.25c-11.234 6.751-24.791 10.744-39.281 10.744-14.446 0-27.964-3.969-39.525-10.876l0.353 0.195c-68.281-37.656-116.109-176.812-118.016-225.469v-0.032c-0.38-2.704-0.597-5.827-0.597-9.001 0-23.161 11.55-43.625 29.204-55.946l0.222-0.146c7.39-4.249 16.249-6.755 25.693-6.755 0.191 0 0.381 0.001 0.572 0.003h-0.029c16.653 0.596 31.955 5.906 44.746 14.626l-0.293-0.189c41.172 25.969 137.766 136.938 136.234 214.906 0.002 0.2 0.003 0.437 0.003 0.674 0 28.706-15.662 53.755-38.908 67.065l-0.378 0.199zM745.031 84.531c-0.516-0.313-1-0.625-1.469-0.875l0.032 1.687c1.406 35.812 43.031 148.812 84.969 171.906 2.306 1.582 5.158 2.527 8.23 2.527 8.1 0 14.667-6.566 14.667-14.667 0-0.369-0.014-0.734-0.040-1.096l0.003 0.048c0.937-47.875-76.095-140.406-106.391-159.531z" />
<glyph unicode="&#xe909;" glyph-name="barrack" d="M736 608l-32-32v-128l32-32v-146.75l-73.376 73.376-22.624 9.374h-176v250.914c18.905 7.674 40.805 12.418 63.729 13.080l0.271 0.006c0.86 0.044 1.868 0.069 2.881 0.069 11.427 0 22.108-3.199 31.194-8.75l-0.263 0.149c16.957-9.757 37.286-15.512 58.96-15.512 1.135 0 2.266 0.016 3.394 0.047l-0.166-0.004c40.472 1.469 78.278 11.46 112.137 28.219l-1.606-0.719 17.469 28.5v168l-43.875 29.719c-24.53-10.561-52.981-18.22-82.732-21.59l-1.393-0.128c-10.383 0.54-19.979 3.452-28.401 8.199l0.323-0.167c-19.776 10.069-43.127 15.968-67.857 15.968-0.023 0-0.046 0-0.069 0h0.003c-22.979-0.437-44.938-4.11-65.662-10.58l1.662 0.447v26.133h-64v-512h-16l-22.624-9.376-73.376-73.374v146.75l32 32v128l-32 32h-192l-32-32v-128l32-32v-352l32-32h768l32 32v352l32 32v128l-32 32h-192zM128 544h128v-64h-128v64zM864 96h-704v320h64v-224l54.624-22.624 118.626 118.624h229.5l118.624-118.624 54.626 22.624v224h64v-320zM896 480h-128v64h128v-64z" />
<glyph unicode="&#xe90a;" glyph-name="base" d="M640 352h-160v139.178c28.274 12.19 61.114 19.743 95.587 20.812l0.413 0.010c1.151 0.052 2.5 0.082 3.856 0.082 17.003 0 32.909-4.7 46.489-12.872l-0.407 0.227c21.33-12.258 46.898-19.488 74.155-19.488 1.374 0 2.744 0.018 4.109 0.055l-0.202-0.004c52.193 1.904 100.943 14.801 144.6 36.427l-2.069-0.927 17.469 28.5v224l-43.875 29.719c-33.865-14.451-73.145-24.932-114.2-29.543l-1.925-0.176c-15.418 0.7-29.707 4.923-42.275 11.876l0.494-0.251c-25.122 12.819-54.788 20.343-86.209 20.375h-0.010c-34.606-0.824-67.496-7.023-98.24-17.791l2.24 0.683v49.108h-64v-480h-32l-22.624-9.376-256-256 22.624-54.624h768l22.624 54.624-256 256zM205.25 96l192 192h229.5l192-192h-613.5z" />
<glyph unicode="&#xe90b;" glyph-name="berserk" d="M846.461 647.068l49.539 184.932-184.932-49.539 45.072-45.070-412.047-412.046c-1.947 1.289-4.17 2.148-6.176 3.356l186.778 342.428 55.961-30.524-4.656 191.396-163.439-99.707 55.957-30.524-191.918-351.852c-0.728 0.094-1.464 0.137-2.193 0.22l7.189 186.957 63.699-2.449-89.295 169.354-102.039-161.994 63.697-2.449-7.5-195.057c-66.556-20.205-114.163-81.020-114.163-152.955 0-88.115 71.431-159.546 159.546-159.546 71.726 0 132.398 47.331 152.485 112.464l0.3 1.13 195.289 7.818 2.547-63.699 161.838 102.287-169.49 89.035 2.546-63.685-186.863-7.48c-0.103 0.906-0.158 1.824-0.276 2.724l351.846 191.936 30.528-55.968 99.709 163.438-191.396 4.656 30.517-55.949-342.426-186.781c-1.205 2.004-2.062 4.224-3.352 6.168l412.047 412.047zM256 96c-53.019 0-96 42.981-96 96s42.981 96 96 96c53.019 0 96-42.981 96-96v0c-0.060-52.995-43.005-95.94-95.994-96h-0.006z" />
<glyph unicode="&#xe90c;" glyph-name="build" d="M234.156 206.094h45.25l133.078 133.078 320.765-320.781h45.25l117.844 117.844v45.25l-320.76 320.788 133.072 133.072v45.249l-171.703 171.703h-45.25l-343.406-343.406-9.376-22.624v-171.703l9.376-22.624zM828.469 158.86l-72.594-72.594-298.14 298.156 72.594 72.594zM202.922 473.016l311.406 311.406 126.453-126.453-384-384-53.86 53.844v145.203z" />
<glyph unicode="&#xe90d;" glyph-name="building" d="M880 624l32 32v160l-28.032 31.75-256 32-15.203-1.781-512-192 11.235-61.969h67.203v-288l32.484-32c23.589-4.657 41.568-23.886 44.289-47.747l0.023-0.253c0.104-1.137 0.163-2.458 0.163-3.794 0-24.415-19.792-44.207-44.207-44.207-0.095 0-0.189 0-0.284 0.001h0.015c-0.299-0.008-0.651-0.013-1.004-0.013-16.92 0-31.279 10.967-36.355 26.18l-0.078 0.27-60.5-20.875c14.121-40.796 52.21-69.567 97.019-69.567 0.323 0 0.646 0.001 0.968 0.004h-0.049c0.181-0.001 0.395-0.002 0.609-0.002 59.529 0 107.786 48.258 107.786 107.786 0 1.482-0.030 2.958-0.089 4.426l0.007-0.21c-2.642 48.294-33.347 88.801-75.981 105.684l-0.815 0.285v262.031h268.797v-544h-400v-64h464v608h96v-608h208v64h-144v544h64v-310.754c-28.491-12.662-48-40.713-48-73.321 0-44.183 35.817-80 80-80s80 35.817 80 80c0 32.608-19.509 60.659-47.491 73.119l-0.509 0.202v310.754h16zM512 688h-223.531l339.392 127.266 220.139-27.516v-99.75h-336z" />
<glyph unicode="&#xe90e;" glyph-name="fast" d="M491.25 872.094l-53.062-24.094v-228.522l-289.125 252.615-53.062-24.094v-800l53.062-24.094 289.125 252.615v-228.522l53.062-24.094 457.812 400v48.188zM160 777.547l377.156-329.547-377.156-329.563v659.109zM502.188 118.437v214.002l104.687 91.467v48.188l-104.687 91.467v213.986l377.188-329.547z" />
<glyph unicode="&#xe90f;" glyph-name="ic" d="M596.484 513.359c-11.547-22.14-39.906-33.359-84.281-33.359v-64h399.797l22.624 54.641-400.203 400-48.858-40.969c61.061-87.422 145.172-250.61 110.922-316.313zM834.72 480h-183.548c0.719 1.25 1.406 2.516 2.078 3.797 26.531 50.938 13.719 121.875-11.422 189zM538.437 66.328c-61.062 87.422-145.172 250.609-110.922 316.313 11.547 22.14 39.906 33.359 84.281 33.359v64h-399.797l-22.624-54.641 400.203-400zM189.28 416h183.547c-0.719-1.25-1.406-2.516-2.078-3.797-26.531-50.938-13.719-121.875 11.422-189z" />
<glyph unicode="&#xe910;" glyph-name="job" d="M160 649.334c-24.891-24.891-39.109-39.111-64-64v-426.668c24.891-24.889 39.109-39.109 64-64h704c24.891 24.891 39.109 39.111 64 64v426.668c-24.891 24.889-39.109 39.109-64 64h-704zM864 185.188l-26.5-26.516h-651l-26.5 26.516v373.625l26.5 26.516h651l26.5-26.516v-373.625zM734.656 649.344v86.656l-32 32h-381.312l-32-32v-86.656h64v54.656h317.312v-54.656h64z" />
<glyph unicode="&#xe911;" glyph-name="normal" d="M798.875 472.094l-457.812 400-53.062-24.094v-800l53.062-24.094 457.812 400v48.188zM352 118.437v659.109l377.188-329.547z" />
<glyph unicode="&#xe912;" glyph-name="pause" d="M851.203 96v704l-32 32h-211.203l-32-32v-704l32-32h211.203zM787.203 128h-147.203v640h147.203v-640zM416 64l32 32v704l-32 32h-211.203l-32-32v-704l32-32h211.203zM236.797 768h147.203v-640h-147.203v640z" />
<glyph unicode="&#xe913;" glyph-name="prime" d="M510.906 797.376l-428.156-30.392-26.375-46.156 189.031-380.608 240.406-355.594 53.156 0.234 235.094 354 187.75 386-26.781 45.92zM719.563 372.47l-207.499-312.454-210.283 310.594-166.875 335.953 374.156 26.797 374.344-23.469zM358.752 403.84l152.768-225.6 0.672 0.992v272.608l-264.992 176.64 111.552-224.64z" />
<glyph unicode="&#xe914;" glyph-name="priority" d="M489.376 923.188l-452.548-452.564v-45.248l452.548-452.564h45.248l452.548 452.564v45.248l-452.548 452.564h-45.248zM512 40.687l-407.296 407.313 407.296 407.313 407.296-407.313zM458.236 714.135h107.527v-364.576h-107.527v364.576zM569.604 239.471c0-31.814-25.79-57.604-57.604-57.604s-57.604 25.79-57.604 57.604c0 31.814 25.79 57.604 57.604 57.604s57.604-25.79 57.604-57.604z" />
</font>
</defs>
</svg>
